FILE "Tomb Raider I - Unfinished Business (USA) (Expansion).bin" BINARY
  TRACK 01 MODE2/2352
    INDEX 01 00:00:00
  TRACK 02 AUDIO
    INDEX 01 01:22:43
  TRACK 03 AUDIO
    INDEX 01 04:39:11
  TRACK 04 AUDIO
    INDEX 01 07:49:66
  TRACK 05 AUDIO
    INDEX 01 10:59:34
  TRACK 06 AUDIO
    INDEX 01 12:59:45
  TRACK 07 AUDIO
    INDEX 01 14:16:44
  TRACK 08 AUDIO
    INDEX 01 15:12:35
  TRACK 09 AUDIO
    INDEX 01 16:20:54
  TRACK 10 AUDIO
    INDEX 01 17:00:60
  TRACK 11 AUDIO
    INDEX 01 18:20:06
  TRACK 12 AUDIO
    INDEX 01 18:28:43
  TRACK 13 AUDIO
    INDEX 01 18:43:42
  TRACK 14 AUDIO
    INDEX 01 18:48:45
  TRACK 15 AUDIO
    INDEX 01 19:00:50
  TRACK 16 AUDIO
    INDEX 01 19:11:53
  TRACK 17 AUDIO
    INDEX 01 19:50:41
  TRACK 18 AUDIO
    INDEX 01 20:33:30
  TRACK 19 AUDIO
    INDEX 01 20:58:54
  TRACK 20 AUDIO
    INDEX 01 22:27:24
  TRACK 21 AUDIO
    INDEX 01 23:21:41
  TRACK 22 AUDIO
    INDEX 01 24:02:58
  TRACK 23 AUDIO
    INDEX 01 25:06:21
  TRACK 24 AUDIO
    INDEX 01 26:03:65
  TRACK 25 AUDIO
    INDEX 01 26:19:18
  TRACK 26 AUDIO
    INDEX 01 26:56:06
  TRACK 27 AUDIO
    INDEX 01 27:03:07
  TRACK 28 AUDIO
    INDEX 01 27:10:08
  TRACK 29 AUDIO
    INDEX 01 27:17:08
  TRACK 30 AUDIO
    INDEX 01 27:24:09
  TRACK 31 AUDIO
    INDEX 01 27:32:07
  TRACK 32 AUDIO
    INDEX 01 27:39:08
  TRACK 33 AUDIO
    INDEX 01 27:48:46
  TRACK 34 AUDIO
    INDEX 01 27:58:13
  TRACK 35 AUDIO
    INDEX 01 28:05:60
  TRACK 36 AUDIO
    INDEX 01 28:12:74
  TRACK 37 AUDIO
    INDEX 01 28:29:70
  TRACK 38 AUDIO
    INDEX 01 28:36:71
  TRACK 39 AUDIO
    INDEX 01 28:43:72
  TRACK 40 AUDIO
    INDEX 01 29:00:03
  TRACK 41 AUDIO
    INDEX 01 29:10:43
  TRACK 42 AUDIO
    INDEX 01 29:17:44
  TRACK 43 AUDIO
    INDEX 01 29:24:44
  TRACK 44 AUDIO
    INDEX 01 29:33:57
  TRACK 45 AUDIO
    INDEX 01 29:42:06
  TRACK 46 AUDIO
    INDEX 01 29:51:72
  TRACK 47 AUDIO
    INDEX 01 29:58:73
  TRACK 48 AUDIO
    INDEX 01 30:05:74
  TRACK 49 AUDIO
    INDEX 01 30:13:00
  TRACK 50 AUDIO
    INDEX 01 30:28:71
  TRACK 51 AUDIO
    INDEX 01 30:35:71
  TRACK 52 AUDIO
    INDEX 01 30:42:71
  TRACK 53 AUDIO
    INDEX 01 30:49:72
  TRACK 54 AUDIO
    INDEX 01 30:59:17
  TRACK 55 AUDIO
    INDEX 01 31:06:18
  TRACK 56 AUDIO
    INDEX 01 31:15:72
  TRACK 57 AUDIO
    INDEX 01 31:22:73
